<?xml version="1.0" encoding="iso-8859-1"?>
<!-- Uploaded to: SVG Repo, www.svgrepo.com, Generator: SVG Repo Mixer Tools -->
<svg height="800px" width="800px" version="1.1" id="Layer_1" xmlns="http://www.w3.org/2000/svg" xmlns:xlink="http://www.w3.org/1999/xlink" 
	 viewBox="0 0 512 512" xml:space="preserve">
<g>
	<path style="fill:#F58E42;" d="M359.489,117.106c-18.173,0-35.048,3.633-50.383,10.294v349.794
		c15.335,6.661,32.21,10.294,50.383,10.294c86.964,0,144.34-82.913,144.34-185.191S446.453,117.106,359.489,117.106z"/>
	<path style="fill:#F58E42;" d="M152.511,117.106c-86.964,0-144.34,82.913-144.34,185.191s57.377,185.191,144.34,185.191
		c19.254,0,37.055-4.072,53.106-11.51V128.617C189.565,121.178,171.765,117.106,152.511,117.106z"/>
</g>
<path style="fill:#F16831;" d="M403.064,302.298c0,102.278-57.377,185.191-144.34,185.191s-144.34-82.913-144.34-185.191
	s57.377-185.191,144.34-185.191S403.064,200.02,403.064,302.298z"/>
<g>
	<path style="fill:#FAB352;" d="M161.868,255.827c-9.209,22.234,1.349,47.724,23.583,56.933s47.723-1.349,56.933-23.583
		L161.868,255.827z"/>
	<path style="fill:#FAB352;" d="M275.064,289.178c9.209,22.234,34.699,32.792,56.933,23.583s32.792-34.699,23.583-56.933
		L275.064,289.178z"/>
</g>
<g>
	<path style="fill:#440852;" d="M470.799,166.436c-27.897-37.08-67.428-57.5-111.31-57.5c-17.652,0-34.613,3.243-50.469,9.643
		c-13.125-5.291-27.153-8.495-41.873-9.38c2.74-44.788,28.694-76.518,63.746-76.518c4.512,0,8.17-3.658,8.17-8.17
		s-3.658-8.17-8.17-8.17c-23.256,0-44.18,10.789-58.919,30.379c-12.448,16.545-19.836,38.489-21.178,62.447
		c-15.923,0.901-31.042,4.515-45.088,10.545c-16.627-7.152-34.504-10.775-53.198-10.775c-43.882,0-83.412,20.42-111.31,57.5
		C14.632,201.748,0,249.998,0,302.298c0,52.299,14.632,100.549,41.201,135.862c27.897,37.08,67.428,57.5,111.31,57.5
		c18.697,0,36.579-3.625,53.209-10.78c16.513,7.081,34.363,10.78,53.004,10.78c17.624,0,34.544-3.301,50.293-9.645
		c15.858,6.402,32.82,9.645,50.473,9.645c43.882,0,83.412-20.42,111.31-57.5C497.368,402.847,512,354.597,512,302.298
		C512,249.998,497.368,201.748,470.799,166.436z M359.489,479.319c-10.296,0-20.31-1.249-29.942-3.723
		c15.167-9.398,28.843-21.96,40.486-37.436c26.568-35.313,41.201-83.563,41.201-135.862c0-4.512-3.658-8.17-8.17-8.17
		c-4.512,0-8.17,3.658-8.17,8.17c0,102.573-57.268,177.021-136.17,177.021s-136.17-74.448-136.17-177.021
		c0-4.512-3.658-8.17-8.17-8.17c-4.512,0-8.17,3.658-8.17,8.17c0,52.299,14.632,100.549,41.201,135.862
		c11.216,14.908,24.315,27.115,38.818,36.393c-10.776,3.16-22.06,4.766-33.721,4.766c-78.902,0-136.17-74.448-136.17-177.021
		s57.268-177.021,136.17-177.021c11.663,0,22.946,1.605,33.721,4.766c-41.136,26.327-70.068,75.64-77.945,138.559
		c-0.561,4.477,2.614,8.561,7.092,9.122c4.482,0.558,8.561-2.614,9.122-7.092c10.884-86.942,64.824-145.356,134.222-145.356
		s123.339,58.414,134.222,145.356c0.517,4.133,4.037,7.156,8.097,7.156c0.339,0,0.681-0.022,1.025-0.064
		c4.477-0.561,7.653-4.645,7.092-9.122c-7.982-63.764-37.59-113.55-79.606-139.604c9.629-2.472,19.642-3.721,29.936-3.721
		c78.902,0,136.17,74.448,136.17,177.021S438.392,479.319,359.489,479.319z"/>
	<circle style="fill:#440852;" cx="297.94" cy="176.477" r="8.17"/>
	<circle style="fill:#440852;" cx="330.621" cy="209.157" r="8.17"/>
	<path style="fill:#440852;" d="M306.111,342.477l-21.09,17.47l-21.09-17.47c-3.023-2.504-7.4-2.504-10.424,0l-21.086,17.469
		l-21.084-17.469c-3.474-2.878-8.624-2.397-11.505,1.078c-2.879,3.475-2.396,8.626,1.078,11.505l26.297,21.787
		c1.512,1.253,3.362,1.879,5.213,1.879c1.85,0,3.701-0.626,5.213-1.879l21.086-17.469l21.089,17.47c3.022,2.504,7.4,2.504,10.424,0
		l26.302-21.787c3.475-2.879,3.959-8.03,1.081-11.504C314.735,340.08,309.585,339.599,306.111,342.477z"/>
	<path style="fill:#440852;" d="M202.11,324.258c21.009,0,39.781-12.543,47.821-31.954c0.829-2.002,0.829-4.251,0-6.253
		c-0.829-2.002-2.419-3.593-4.422-4.422l-80.515-33.35c-4.17-1.728-8.948,0.253-10.675,4.422
		c-10.919,26.36,1.644,56.688,28.004,67.608C188.651,322.928,195.308,324.258,202.11,324.258z M169.416,286.05
		c-2.552-6.163-3.304-12.766-2.256-19.188l63.675,26.375c-6.556,9.111-17.143,14.68-28.726,14.68c-4.644,0-9.196-0.911-13.532-2.706
		C179.839,301.593,173.035,294.788,169.416,286.05z"/>
	<path style="fill:#440852;" d="M352.452,248.279l-80.515,33.35c-2.002,0.829-3.593,2.419-4.422,4.422s-0.829,4.251,0,6.253
		c8.039,19.41,26.811,31.953,47.822,31.954c6.802,0,13.458-1.329,19.786-3.95c26.36-10.919,38.922-41.248,28.004-67.608
		C361.4,248.532,356.621,246.552,352.452,248.279z M348.03,286.05c-3.619,8.738-10.424,15.542-19.161,19.161
		c-4.336,1.796-8.887,2.706-13.529,2.706c-11.585,0-22.174-5.571-28.73-14.68l63.675-26.375
		C351.335,273.285,350.583,279.889,348.03,286.05z"/>
</g>
</svg>