<?xml version="1.0" encoding="UTF-8"?>
<svg xmlns="http://www.w3.org/2000/svg" viewBox="0 0 512 512" width="512" height="512">
  <defs>
    <linearGradient id="gbody" x1="0" x2="0" y1="0" y2="1">
      <stop offset="0%" stop-color="#ff9a2e"/>
      <stop offset="60%" stop-color="#ff7a00"/>
      <stop offset="100%" stop-color="#e25d00"/>
    </linearGradient>
    <linearGradient id="gstem" x1="0" x2="0" y1="0" y2="1">
      <stop offset="0%" stop-color="#6d3f1a"/>
      <stop offset="100%" stop-color="#3d2008"/>
    </linearGradient>
    <filter id="s" x="-20%" y="-20%" width="140%" height="140%">
      <feDropShadow dx="0" dy="6" stdDeviation="10" flood-color="#000" flood-opacity="0.25"/>
    </filter>
  </defs>

  <!-- pumpkin body -->
  <g filter="url(#s)">
    <path d="M256 48
             C180 48 120 96 96 160
             C56 192 56 256 96 312
             C120 372 180 424 256 424
             C332 424 392 372 416 312
             C456 256 456 192 416 160
             C392 96 332 48 256 48 Z"
          fill="url(#gbody)"/>

    <!-- ridges -->
    <path d="M140 160
             C170 120 210 96 256 96
             C302 96 342 120 372 160"
          fill="none" stroke="#d86b00" stroke-width="18" stroke-linecap="round" stroke-linejoin="round" opacity="0.6"/>

    <path d="M120 220
             C140 200 160 192 192 200
             C220 208 240 236 256 236
             C272 236 292 208 320 200
             C352 192 372 200 392 220"
          fill="none" stroke="#d86b00" stroke-width="14" stroke-linecap="round" stroke-linejoin="round" opacity="0.45"/>
  </g>

  <!-- stem -->
  <path d="M232 32 C238 20 274 18 294 36 L308 56 C290 44 254 40 232 32 Z" fill="url(#gstem)"/>

  <!-- facial features (black) -->
  <g fill="#000000">
    <!-- left eye -->
    <path d="M156 196
             C144 188 136 174 140 164
             C150 160 178 170 196 180
             C186 188 172 198 156 196 Z"/>

    <!-- right eye -->
    <path d="M356 196
             C368 188 376 174 372 164
             C362 160 334 170 316 180
             C326 188 340 198 356 196 Z"/>

    <!-- nose (triangle) -->
    <path d="M256 224 L236 260 L276 260 Z"/>

    <!-- jagged mouth -->
    <path d="M140 296
             L172 316 L194 300 L220 316 L248 300 L276 316 L304 300 L328 316 L368 296
             C360 336 320 364 256 364
             C192 364 152 336 140 296 Z"/>
  </g>

  <!-- slight highlight -->
  <ellipse cx="200" cy="140" rx="60" ry="30" fill="#ffffff" opacity="0.06"/>

</svg>
